<?xml version="1.0" encoding="utf-8"?>
<!-- Generator: Adobe Illustrator 26.0.1, SVG Export Plug-In . SVG Version: 6.00 Build 0)  -->
<svg version="1.1" id="Layer_1" xmlns="http://www.w3.org/2000/svg" xmlns:xlink="http://www.w3.org/1999/xlink" x="0px" y="0px"
	 viewBox="0 0 1015.29 1080" style="enable-background:new 0 0 1015.29 1080;" xml:space="preserve">
<style type="text/css">
	.st0{fill:#FFFFFF;}
</style>
<g>
	<g>
		<path class="st0" d="M285.88,91.5c-26.79-5.27-52.11-10.24-69.03-0.44c-17.32,10.02-25.71,34.69-34.59,60.81
			c-7.83,23.07-15.94,46.93-31.57,62.55c-15.62,15.62-39.49,23.73-62.55,31.57c-26.13,8.88-50.79,17.26-60.83,34.59
			c-9.79,16.93-4.82,42.23,0.45,69.03c4.74,24.14,9.65,49.11,3.84,70.85c-4.44,16.6-8.91,44.49-8.17,73
			c0.46,17.71,8.82,34.03,22.91,44.75c8.28,6.3,17.9,10.17,27.91,11.42c6.96,0.86,14.12,0.45,21.15-1.29l5.25,21.11
			c-3.71,0.93-7.44,1.57-11.19,1.94c-20.01,2.07-40.04-3.48-56.32-15.87c-19.35-14.74-30.83-37.14-31.47-61.5
			c-0.7-26.19,2.64-55.78,8.88-79.18c4.53-16.89,0.12-39.33-4.16-61.05c-5.8-29.55-11.81-60.12,2.07-84.11
			c14.12-24.4,43.88-34.51,72.65-44.29c20.72-7.04,42.14-14.32,54.18-26.35c12.03-12.04,19.31-33.47,26.35-54.18
			c9.78-28.77,19.87-58.52,44.29-72.65c23.99-13.88,54.56-7.88,84.11-2.06c21.72,4.27,44.16,8.68,61.05,4.16
			c15.89-4.25,31.84-18.25,48.73-33.08C422.95,20.96,446.84,0,475.78,0s52.84,20.96,75.93,41.24
			c16.89,14.83,32.84,28.83,48.73,33.08c11.34,3.03,25.18,2.03,39.63-0.23c-6.89,5.59-13.45,11.69-19.64,18.26
			c-0.87,0.93-1.55,1.81-2.05,2.45l-0.44,0.55l-2.1,2.63c-0.67,0-1.35-0.01-2.02-0.04c-6.53-0.17-12.9-0.97-19-2.6
			c-9.94-2.67-19.4-7.78-28.51-14.14c-9.97-6.93-19.56-15.33-28.96-23.6c-20.08-17.61-40.84-35.83-61.58-35.83
			c-20.75,0-41.5,18.22-61.58,35.83c-18.02,15.83-36.66,32.19-57.46,37.75C334.97,101.14,310.02,96.24,285.88,91.5z"/>
		<path class="st0" d="M775.4,107.32c-6.11,1.86-12.16,3.97-18.15,6.35c0.01-0.04,0.01-0.07,0.03-0.12
			c2.29-8.66,4.18-17.44,5.64-26.3C767.8,93.22,771.84,100.03,775.4,107.32z"/>
		<path class="st0" d="M787.79,196.93c-2.92-5.05-5.48-10.43-7.83-16.02c1.97-9.5,6.73-16.83,14.59-22.6
			c1.19,3.38,2.44,6.7,3.73,9.95C795.32,177.96,791.82,187.52,787.79,196.93z"/>
		<path class="st0" d="M940.98,664.18c-4.53,16.87-0.12,39.33,4.16,61.03c5.8,29.55,11.81,60.12-2.07,84.11
			c-14.12,24.42-43.88,34.51-72.65,44.29c-20.72,7.04-42.14,14.32-54.18,26.36c-12.03,12.03-19.31,33.45-26.34,54.17
			c-9.78,28.78-19.87,58.54-44.29,72.65c-23.99,13.88-54.56,7.88-84.11,2.07c-21.72-4.27-44.16-8.69-61.05-4.16
			c-15.89,4.24-31.84,18.25-48.73,33.06c-22.83,20.05-46.44,40.77-74.92,41.24c-3.53,0.61-7.73,0.99-12.35,0.99
			c-20.08,0-47.9-7.25-61.41-35.11c-0.06-0.13-0.12-0.28-0.19-0.41c-1.78-3.73-3.08-7.78-3.96-12.37
			c-4.89-25.39-35.15-154.69-150.29-206.99l8.99-19.82c124.89,56.72,157.42,195.45,162.67,222.68c0.54,2.76,1.26,5.09,2.23,7.14
			c0.8,1.68,1.68,3.26,2.64,4.71c15.19,23.39,47.21,17.86,48.66,17.6l0.96-0.17h1.03c20.75,0,41.5-18.22,61.58-35.85
			c18.02-15.83,36.66-32.18,57.46-37.73c21.76-5.82,46.71-0.91,70.85,3.83c26.79,5.27,52.1,10.24,69.03,0.45
			c17.32-10.02,25.71-34.7,34.59-60.81c7.83-23.08,15.94-46.95,31.57-62.57c15.62-15.62,39.49-23.73,62.55-31.57
			c26.13-8.88,50.79-17.25,60.83-34.59c9.79-16.92,4.82-42.23-0.45-69.03c-4.74-24.14-9.65-49.09-3.84-70.85
			c5.57-20.8,21.92-39.45,37.75-57.46c17.61-20.08,35.83-40.84,35.83-61.58c0-20.75-18.22-41.5-35.83-61.58
			c-15.83-18.02-32.18-36.66-37.75-57.46c-5.8-21.75-0.9-46.71,3.84-70.85c5.27-26.79,10.24-52.1,0.45-69.03
			c-10.04-17.32-34.7-25.71-60.83-34.59c-14.49-4.92-29.32-9.95-42.2-16.89c5.14-5.61,10.04-11.46,14.41-17.09
			c10.52,5.14,22.78,9.3,34.8,13.38c28.77,9.78,58.54,19.89,72.65,44.29c13.88,23.99,7.88,54.56,2.07,84.11
			c-4.28,21.72-8.69,44.16-4.16,61.05c4.24,15.89,18.24,31.84,33.06,48.73c20.28,23.11,41.24,47,41.24,75.93
			c0,28.94-20.96,52.84-41.24,75.93C959.22,632.34,945.22,648.28,940.98,664.18z"/>
	</g>
	<g>
		<path class="st0" d="M893.66,706.67c-0.38-1.03-0.88-2.02-1.1-3.08c-3.63-17.42-10.55-33.5-19.82-48.64
			c-5.16-8.44-10.18-16.99-15.17-25.53c-1.2-2.07-2.16-4.34-2.96-6.6c-8.01-23.04-18.1-45.12-30.61-66.07
			c-6.44-10.79-14.04-20.79-21.76-30.68c-10.08-12.94-20.31-25.76-30.06-38.94c-10.07-13.61-17.84-28.52-23.52-44.49
			c-0.32-0.9-0.61-1.81-0.67-2.89c15.01,12.71,27.98,27.2,39.29,43.22c11.26,15.94,20.53,32.97,27.8,51.12
			c0.22-0.07,0.44-0.16,0.67-0.23c-0.73-5.31-1.32-10.65-2.21-15.93c-5.6-32.93-17.67-63.47-34.43-92.24
			c-6.85-11.77-15.58-22.09-25.01-31.87c-5.73-5.93-11.3-12.06-16.44-18.5c-3.39-4.27-6.28-9.05-8.73-13.94
			c-4.77-9.52-4.61-19.22-0.12-28.96c8.78-18.99,28.25-30.6,49.11-29.04c0.75,0.06,1.51,0,2.52,0c2.31-8.14,4.61-16.26,6.92-24.36
			c-27.08-11.62-71.84,8.37-72.32,52.02c-1.57-0.68-1.86-2.18-2.44-3.34c-11.87-24.08-4.45-53.56,17.42-69.18
			c9.88-7.06,20.92-10.59,33.11-10.45c2.07,0.03,4.16,0,6.69,0c0.1-1.15,0.25-2.41,0.32-3.67c0.51-10.36-1.18-20.38-4.38-30.2
			c-1.89-5.76-3.95-11.43-6.95-16.73c-5.28-9.31-13.25-15.36-23.24-19.4c-0.42,1.07-0.81,1.96-1.12,2.86
			c-3.24,9.69-7.92,18.58-13.97,26.82c-4.16,5.67-9.34,10.21-15.16,14.07c-3.48,2.31-6.96,4.64-10.42,6.99
			c-6.02,4.09-10.81,9.27-14.46,15.6c-7.22,12.51-11.4,25.91-12.66,40.29c-0.26,2.92,0.23,5.56,1.39,8.3
			c9.47,22.38,18.79,44.84,28.19,67.26c2.09,4.98,4.22,9.92,6.47,14.81c5.12,11.18,7.46,22.92,7.63,35.21
			c0.19,12.97-1.1,25.71-4.63,38.18l-0.12-0.12c6.59,5.98,13.39,11.75,19.73,17.99c18.48,18.22,35.34,37.83,49.05,59.93
			c7.24,11.68,13.61,23.91,20.27,35.93c10.76,19.45,21.44,38.94,32.16,58.42c0.58,1.04,1.09,2.13,1.7,3.34
			c-0.8,0.7-1.52,1.33-2.6,2.28c-0.67-1.22-1.26-2.21-1.77-3.24c-14.26-28.94-33.4-54.31-56.37-76.86
			c-15.23-14.93-32.64-26.4-52.88-33.4c-1.89-0.65-3.67-0.9-5.76-0.57c-36.34,5.8-66.79-4.87-90.45-33.29
			c-10.76-12.93-17.52-27.91-19.73-44.73c-1.9-14.57,0.32-28.54,6.46-41.85c1.89-4.09,4.09-8.04,6.33-11.95
			c2.89-5.05,7.08-8.97,11.55-12.59c3.93-3.19,7.91-6.33,11.88-9.47c0.41-0.32,0.9-0.51,1.67-0.93c-1.65,17.6-5.3,34.4-10.56,51.12
			c22.85,3.9,44.96,9.47,66.66,17.13c-2.92-8.34-7.8-15.2-14.17-21.08c-6.33-5.83-13.71-9.85-21.85-12.53
			c1.12-4.89,2.28-9.44,3.19-14.07c4.12-21.05,2.7-41.82-3.26-62.37c-0.57-1.96-0.71-4.11-0.71-6.15
			c-0.01-25.29-12.26-43.14-33.57-55.55c-0.28-0.16-0.59-0.26-0.91-0.36c-0.09-0.03-0.2,0.01-0.78,0.09c0.8,1.03,1.47,1.9,2.15,2.76
			c7.82,9.73,12.35,20.73,12.81,33.29c0.28,7.38-1.35,14.45-4.09,21.24c-6.33,15.64-14.46,30.12-26.45,42.26
			c-5.88,5.95-11.43,12.22-16.97,18.48c-9.62,10.88-13.65,23.88-14.2,38.2c-0.71,18.74,3.99,36.17,12.52,52.7
			c8.41,16.34,19.82,30.09,34.83,40.79c13.64,9.72,27.52,19.03,42.81,26.03c2.35,1.07,4.45,1.25,6.92,0.68
			c9.76-2.22,19.61-2.73,29.46-0.51c8.31,1.87,15.6,5.95,22.37,10.97c2.74,2.03,5.5,4.08,7.96,6.43
			c12.51,11.94,25.05,23.82,37.3,36.02c8.04,8.01,15.03,16.97,21.75,26.13c0.83,1.13,1.61,2.29,2.09,3.8
			c-0.64-0.48-1.32-0.93-1.93-1.47c-7.66-6.63-15.41-13.16-22.94-19.93c-3.16-2.86-5.89-6.22-8.73-9.43
			c-2.55-2.87-4.87-5.99-7.56-8.73c-1.74-1.78-3.83-3.32-5.99-4.6c-3.57-2.1-7.46-2.6-11.45-1.2c-2.5,0.87-4.96,1.8-7.41,2.79
			c-3.5,1.39-7.07,1.62-10.69,0.81c-12.87-2.89-21.54-10.47-25.68-23.08c-0.2-0.62-0.38-1.26-0.59-1.89
			c-0.07-0.19-0.25-0.35-0.41-0.58c-0.94,0-1.93-0.1-2.9,0.01c-23.1,2.65-45.41-1.18-67.3-8.31c-12.84-4.18-25.01-9.73-36.14-17.47
			c-22.31-15.52-35.53-37.14-42-63.15c-3.63-14.61-4.06-29.39-1.55-44.23c0.13-0.74,0.1-1.51,0.15-2.21
			c-10.87-6.11-24.34-1.35-28.17,10.34c-4,12.2-6.47,24.82-4.6,37.72c3.7,25.49,13.62,48.15,31.93,66.7
			c5.82,5.89,12.26,11.07,18.99,15.86c12.04,8.57,24.68,16.19,37.78,22.96c16.78,8.69,34.73,13.43,53.46,16.03
			c47.06,6.56,90,23.75,128.63,51.5c0.77,0.55,1.47,1.2,2.89,2.36c-2.16,0.13-3.53,0.26-4.9,0.28c-3.41,0.03-7.02,0.7-10.18-0.22
			c-3.12-0.9-5.82-3.35-8.63-5.22c-12.36-8.2-25.58-14.62-39.71-19.18c-8.34-2.7-16.9-4-25.62-4.41
			c-7.25-0.33-14.52-0.61-21.79-0.62c-14.74-0.04-29.09-2.44-43.3-6.28c-24.31-6.56-47.02-16.71-68.6-29.52
			c-5.96-3.54-11.87-7.17-17.64-11.01c-18.28-12.19-29.3-29.46-34.77-50.48c-2.74-10.5-3.89-21.19-2.87-32.08
			c0.1-1.15,0.01-2.31,0.01-4.05c-0.86,1.1-1.42,1.73-1.87,2.42c-14.51,22.92-17.18,47.16-7.91,72.65
			c2.84,7.82,7.88,14.19,13.93,19.82c7.22,6.72,15.54,11.9,23.95,16.93c12.56,7.5,25.11,15.04,37.66,22.57
			c15.51,9.31,31.55,17.48,48.85,23.07c12.51,4.05,25.29,5.9,38.39,5.16c12.3-0.7,24.6-1.54,36.89-2.48
			c11.94-0.91,23.75-0.06,35.51,1.96c3.79,0.65,7.54,1.6,11.36,2.09c2.44,0.32,3.54,1.61,4.45,3.7c4.93,11.3,7.3,23.1,6.57,35.38
			c-0.46,7.89-0.97,15.87-2.5,23.6c-3.1,15.87-15.71,25.26-32.03,24.26c-13.1-0.81-22.14-7.7-27.42-19.63
			c-0.39-0.87-0.57-1.83-0.97-3.13c1.2,0.16,2.05,0.2,2.84,0.39c8.43,2.02,16.92,2.74,25.56,1.78c1.78-0.2,3.08-0.81,4.28-2.07
			c3.84-4.09,7.96-7.85,12.56-11.16c5.9-4.25,7.27-10.62,6.33-17.39c-1.45-10.4-6.88-17.95-17.02-21.62
			c-10-3.61-20.31-5.89-30.9-6.56c-5.92-0.38-11.88-0.09-17.81-0.06c-1.03,0-2.07,0.23-3.15,0.64
			c15.65,3.45,27.98,11.55,36.28,25.27c4.73,7.83,6.53,16.44,5.77,26.39c-0.83-1.31-1.32-1.94-1.68-2.65
			c-2.61-5.14-5.9-9.79-9.71-14.12c-6.17-6.98-13.51-12.21-22.28-15.44c-22.43-8.25-45.1-15.64-68.4-21.05
			c-0.73-0.16-1.47-0.22-2.68-0.39c0.78,1.65,1.42,2.9,1.97,4.18c5.14,11.68,10.34,23.33,15.35,35.06
			c2.47,5.79,3.89,11.91,4.79,18.15c0.17,1.2,0.45,2.38,0.62,3.58c2.09,14.64,21.64,20.7,32.09,14.58
			c-0.39-0.28-0.73-0.57-1.09-0.75c-8.78-4.58-11.52-12.4-11-21.56c0.42-7.49,7.91-10.92,14.36-6.99c1.16,0.71,1.62,1.61,1.8,2.92
			c0.33,2.5,0.65,5.03,1.31,7.46c2.21,8.07,6.89,14.43,13.8,19.13c1.28,0.87,2.02,1.78,2.23,3.38c1.19,8.83,2.52,17.64,3.73,26.46
			c0.81,5.99,1.28,12.04,2.32,17.99c1.64,9.34,6.93,16.25,15,21.11c6.3,3.8,13.23,5.98,20.31,7.62c7.82,1.81,15.67,3.54,23.56,5.01
			c9.08,1.68,18.19,1.31,27.24-0.42c0.97-0.19,1.94-0.32,3.18-0.52c4.11,7.04,10.08,11.77,17.92,14.06
			c7.76,2.26,15.23,1.57,22.47-2.42c3.83,2.44,7.82,4.51,12.33,5.32c13,2.32,23.92-1.67,30.84-12.72c4.42-7.08,7.5-14.64,7.67-23.2
			c0.2-9.92,3.87-18.89,8.17-27.62c2.81-5.73,5.79-11.37,8.53-17.15c2.36-4.98,4.13-10.18,5.06-15.65c0.17-1.03,0.78-1.99,1.19-2.97
			C893.66,712.39,893.66,709.53,893.66,706.67z M808.07,772.85c0.77-1.41,1.2-2.23,1.67-3.05c6.44-11.23,5.6-24.76-2.19-35.09
			c-1.26-1.67-2.6-3.28-3.84-4.96c-6.12-8.23-6.7-17.61-0.99-26.14c7.62-11.36,18.41-16.76,32.16-15.33
			c6.12,0.64,11.58,3.16,16.35,7.6c-3.58,7.08-8.31,12.24-16.7,12.85c-3.61,0.26-7.27,0.54-10.79,1.29
			c-5.34,1.13-7.95,4.95-7.56,10.36c0.28,3.77,1.25,7.37,3.18,10.65c1.33,2.28,2.7,4.54,4,6.83c1.81,3.16,2.45,6.57,2.13,10.17
			c-0.59,6.79-3.03,12.81-7.66,17.86C815.25,768.73,812.26,771.06,808.07,772.85z"/>
		<path class="st0" d="M750.3,43.99c-2.25,0.39-4.5,0.9-6.77,1.18c-28.43,3.55-54.6,13.3-78.66,28.81
			c-12.46,8.04-23.72,17.52-33.87,28.32c-0.59,0.62-1.09,1.33-1.74,2.16c5.18,4.28,10.24,8.47,15.42,12.77
			c-17.21,22.85-26.48,48.28-27.14,76.68c-0.33,14.14,1.58,27.97,6.12,41.37c-8.73-78.88,46.13-135.57,100.49-149.41
			c-5.53,29.46-13.94,57.83-25.1,85.4c-11.13,27.48-24.98,53.53-40.77,78.7c0.78-0.67,1.61-1.31,2.36-2.02
			c40.61-38.21,68.37-84.13,82.6-138.09c5.41-20.5,8.43-41.37,9.11-62.58c0.03-1.09-0.04-2.19-0.07-3.29
			C751.62,43.99,750.95,43.99,750.3,43.99z"/>
		<path class="st0" d="M57.89,374.34c0.44,1.54,0.86,3.09,1.33,4.63c4.51,14.52,13.56,25.2,27.08,32.13
			c0.78,0.41,1.58,0.75,2.36,1.18c0.17,0.09,0.25,0.35,0.52,0.75c-15.73,27.23-18.86,56.85-16.93,88.38
			c0.52,8.52,1.9,16.97,4.28,25.17c3.64,12.59,9.21,25.21,24.14,42.9c-9.73-57.2-4.05-122.08,22.62-173.78
			c-14.23-4.18-25.61-12.01-33.6-24.39c-7.98-12.36-10.49-25.88-8.56-40.49c-0.58,0.9-1.19,1.78-1.74,2.7
			c-6.99,11.97-13.98,23.94-20.99,35.89c-0.09,0.16-0.35,0.22-0.52,0.33C57.89,371.25,57.89,372.79,57.89,374.34z"/>
		<path class="st0" d="M442.52,979.16c0.87-1.36,1.76-2.71,2.58-4.09c12.51-20.66,20.14-42.96,22.53-67.01
			c2.73-27.39-1-53.81-12.2-79.02c-7.89-17.77-19.35-33.18-31.79-48.02c-14.03-16.76-31.83-27.58-52.1-34.7
			c-14.52-5.11-29.23-9.71-43.81-14.62c-12.95-4.37-25.76-9.21-37.14-16.93c-7.73-5.24-15.06-11.11-22.27-17.05
			c-18.5-15.2-35.89-31.54-51.01-50.18c-12.77-15.74-23.39-32.74-31-51.6c-7.82-19.35-10.52-39.42-9.14-60.16
			c1.48-22.21,6.8-43.65,12.51-65.04c5.34-19.98,10.72-39.94,15.73-60c2.65-10.66,4.34-21.57,6.8-32.28
			c4.67-20.3,11.16-40.04,18.87-59.38c0.36-0.9,0.71-1.81,1.15-2.97c-18.48-9.49-31.65-23.73-38.78-43.19
			c-7.09-19.38-5.89-38.6,2.38-57.91c-1.22,0.36-1.93,0.52-2.6,0.8c-22.3,9.24-39.71,24.15-51.99,44.97
			c-1.16,1.96-1.71,3.92-1.62,6.24c1.19,30.61,14.2,55.14,37.88,74.26c1.03,0.83,2.07,1.62,3.1,2.45c0.07,0.06,0.07,0.2,0.3,0.86
			c-28.7-10.66-49.45-29.39-62.83-57.35c-0.77,1.07-1.28,1.91-1.91,2.65c-6.8,7.95-13.59,15.9-20.47,23.78
			c-1.23,1.42-1.51,2.63-0.96,4.44c9.18,29.91,29.03,48.54,59.29,56.19c1.7,0.44,3.44,0.73,5.15,1.1c0.07,0.01,0.13,0.16,0.36,0.46
			c-0.26,0.54-0.51,1.23-0.88,1.86c-17.81,29.29-29.75,60.8-35.79,94.53c-3.8,21.33-5.02,42.81-3.67,64.46
			c2.34,37.3,11.79,72.65,28.67,105.97c12.68,25.05,29.42,47.22,48.83,67.43c9.47,9.85,19.57,19.03,30.03,27.82
			c11.2,9.4,24.01,15.86,37.59,20.95c13.62,5.09,27.68,8.73,41.68,12.58c13.36,3.67,26.66,7.54,39.58,12.68
			c19.34,7.67,34.82,20.18,47.82,36.3c23.11,28.67,38.5,60.89,45.55,97.01c3.87,19.89,4.9,39.95,2.97,60.15
			c-0.04,0.44,0,0.87,0,1.31C442.12,978.97,442.33,979.07,442.52,979.16z"/>
		<path class="st0" d="M414.75,567.97c-1.51-3.37-3.08-6.69-4.51-10.08c-10.26-24.24-17.26-49.4-21.24-75.41
			c-3.41-22.28-4.53-44.71-3.26-67.18c3.45-61.61,20.14-119.32,52.05-172.36c4.64-7.73,9.76-15.17,14.94-22.57
			c1.6-2.28,1.57-3.82,0.2-6.12c-7.95-13.42-13-27.91-14.97-43.38c-2.96-23.08,0.58-45.19,10.68-66.2c0.48-0.99,0.96-1.99,1.42-2.97
			c0.04-0.09,0-0.22-0.03-0.77c-9.62,1.57-19.18,3.13-29.09,4.74c-11.11,37.21-10.21,74.13,2.06,110.94
			c-9.17-15.54-15.1-32.19-18.32-49.86c-3.22-17.7-3.34-35.44-0.54-53.66c-1.19,0.39-2.09,0.62-2.92,0.99
			c-9.98,4.35-19.93,8.79-29.97,13.03c-2.06,0.87-2.73,2.02-2.84,4.16c-1.89,33.96,8.99,63.18,32.47,87.74
			c0.68,0.71,1.33,1.44,1.9,2.06c-55.97,111.62-61.58,225.53-16.93,341.98c-22.27-29.75-36.98-62.89-44.19-99.36
			c-7.22-36.57-5.61-72.87,3.24-109.05c-0.32,0.49-0.7,0.96-0.94,1.48c-10.52,22.28-17.32,45.61-19.89,70.14
			c-3.34,31.84,1.03,62.79,11,93.05c7.72,23.44,18.55,45.41,32,66.07c9.05,13.9,20.63,25.52,33.56,35.72
			c12.95,10.23,26.32,19.95,39.52,29.86c11.72,8.79,23.18,17.87,33.54,28.29c10.05,10.11,16.68,22.02,19.6,36.01
			c0.1,0.49,0.3,0.96,1.06,1.48c6.43-19.34,12.85-38.68,19.34-58.16c-1.15-0.87-2.16-1.68-3.21-2.45
			c-42.22-31.51-70.24-72.64-83.53-123.64c-6.14-23.53-7.88-47.5-5.86-71.72c2.19-26.39,9.05-51.5,20.44-75.39
			c0.84-1.76,1.94-3.47,3.19-4.96c31.09-36.94,56.91-77.24,76.83-121.22c6.03-13.32,11.07-27.07,16.63-40.61
			c0.86-2.09,0.74-3.9-0.12-5.99c-6.86-16.71-9.28-34.15-7.66-52.08c2.06-22.78,10.55-43.01,24.89-60.8
			c1.02-1.26,2.03-2.51,3.48-4.31c-10.29-0.42-19.92-0.81-29.64-1.22c-19.48,30.42-26.5,63.29-21.11,98.87
			c-11.03-33.05-10.37-65.98,1.25-99.29c-10.76,0.55-21.18,1.44-31.65,2.18c-1.83,5.85-2.84,11.59-3.48,17.37
			c-3.71,33.6,4.29,64.19,23.78,91.79c1.06,1.49,1.32,2.74,0.75,4.53c-9.39,29.99-22.57,58-42.52,82.55
			c-4.16,5.12-8.09,10.45-12.2,15.61c-13.1,16.51-21.85,35.3-28.7,55.07c-7.49,21.62-12.2,43.84-14.61,66.59
			c-2.21,20.86-2.6,41.75-1.04,62.66c1.83,24.58,6.75,48.57,14.51,71.97c0.41,1.22,0.77,2.45,1.15,3.67
			C415.11,567.84,414.94,567.9,414.75,567.97z"/>
		<path class="st0" d="M475.64,811.1c0.64-1.52,1.09-2.5,1.45-3.51c9.6-26.78,10.27-53.82,2.13-81.05
			c-3.58-12-10.92-21.47-20.37-29.45c-7.51-6.35-15.78-11.61-24.44-16.22c-11.84-6.33-23.84-12.36-35.66-18.71
			c-12.74-6.86-24.98-14.52-34.86-25.27c-6.54-7.14-12.8-14.55-18.9-22.07c-12.93-15.94-24.39-32.86-33.53-51.3
			c-8.81-17.79-14.57-36.54-18.32-55.95c-3.15-16.26-4.38-32.7-4.06-49.27c0.32-16.32,3.26-32.19,8.43-47.6
			c5.03-15.01,10.62-29.84,16.06-44.71c7.85-21.49,15.51-43.06,23.79-64.37c6.77-17.42,14.3-34.56,21.63-51.76
			c0.97-2.29,0.97-3.8-0.65-5.88c-16.16-20.59-23.12-44.01-20.82-70.06c1.22-13.64,5.43-26.46,12.07-38.46
			c0.64-1.15,1.25-2.32,1.86-3.48c0.04-0.07-0.01-0.19-0.06-0.59c-0.84,0.3-1.64,0.57-2.41,0.88c-15.49,6.28-30.97,12.62-46.5,18.83
			c-1.96,0.78-2.93,1.9-3.45,3.9c-7.83,30.07-3.95,58.46,12.08,85.13c0.57,0.94,1.1,1.9,1.62,2.86c0.03,0.04-0.1,0.17-0.32,0.55
			c-12.59-8.78-22.43-19.92-29.68-33.38c-7.22-13.4-10.82-27.78-11.16-43.41c-1.15,0.62-1.9,0.96-2.58,1.41
			c-9.75,6.4-19.47,12.85-29.28,19.19c-1.68,1.09-2.31,2.32-2.38,4.27c-0.65,21.24,2.48,41.9,9.1,62.06
			c4.76,14.51,11.18,28.22,19.5,41.03c1.16,1.78,1.45,3.38,0.96,5.53c-8.37,36.44-16.6,72.93-24.94,109.37
			c-4.56,19.95-9.31,39.84-13.88,59.77c-2.64,11.49-4.6,23.11-4.85,34.93c-0.45,20.92,3.44,41.16,10.23,60.87
			c7.82,22.75,19.21,43.67,32.8,63.43c3.86,5.61,8.01,11.04,12,16.58c9.89,13.74,22.65,24.21,37.15,32.71
			c13.14,7.69,27.08,13.68,41.11,19.51c14.72,6.14,29.51,12.14,44.04,18.69c13.29,5.98,25.81,13.35,36.91,22.91
			c18.12,15.61,29.44,35.35,35.31,58.36c0.94,3.73,1.45,7.56,2.19,11.33C475.07,809.31,475.3,809.91,475.64,811.1z"/>
		<path class="st0" d="M576.11,164.42c1.04-20.6,5.48-40.45,13.04-59.97c-4.86-0.86-9.36-1.64-14.06-2.45
			c-0.64,0.96-1.29,1.81-1.83,2.74c-14.29,24.14-21.59,50.18-21.35,78.3c0.07,9.49,0.86,18.9,2.79,28.2
			c0.45,2.18,0.12,3.89-1.18,5.8c-11.87,17.54-19.12,36.86-21.69,57.87c-0.8,6.53-0.75,13.17-0.9,19.77
			c-0.04,1.97-0.46,3.55-1.67,5.15c-23.44,31.29-42.09,65.22-55.94,101.8c-10.63,28.09-18.12,56.98-22.44,86.72
			c-1.77,12.22-3.19,24.44-2.61,36.83c1.65,35.48,14.36,66.37,38.56,92.43c15.12,16.28,33.11,28.56,53.37,37.59
			c5.98,2.67,12.39,3.8,18.71,5.22c4.61,1.03,9.23,2.06,13.77,3.37c6.96,2,12.71,5.9,17.18,11.69c2.35,3.05,4.73,6.09,7.31,8.95
			c6.89,7.66,15.77,11.34,25.82,12.53c0.28,0.03,0.57-0.15,1.13-0.29c-0.9-1.18-1.7-2.19-2.47-3.22
			c-6.01-8.15-12.3-16.12-17.89-24.53c-3.25-4.9-5.38-10.56-8.02-15.87c-1.71-3.44-3.25-6.99-5.22-10.29
			c-4.5-7.47-11.24-11.32-19.96-11.42c-4.95-0.06-9.92,0-14.86,0.35c-7.89,0.54-15.26-0.99-22.43-4.27
			c-13.81-6.33-25.18-15.73-34.45-27.62c-13.93-17.84-23.91-37.69-28.94-59.84c-3.09-13.65-3.38-27.51-1.9-41.37
			c3.03-28.54,11.23-55.58,24.05-81.2c9.42-18.83,21.63-35.79,35.99-51.14c3.58-3.83,7.88-7.01,11.92-10.4
			c2.19-1.84,4.53-3.5,6.8-5.24c17.18-13.04,26.2-30.83,29.41-51.7c1.03-6.7,0.62-13.62,0.88-20.44c0.16-3.95,0.35-7.89,1.13-12.01
			c0.39,0.67,0.84,1.29,1.16,1.99c5.69,12.52,11.33,25.07,17.07,37.56c0.81,1.76,0.62,2.97-0.51,4.48
			c-6.4,8.57-11.87,17.73-17.23,26.97c-3.64,6.28-7.72,12.3-11.72,18.35c-4.98,7.53-9.95,15.04-13.9,23.21
			c-5.25,10.87-6.51,22.34-5.4,34.14c2.36,24.94,13.16,45.61,32.08,62.02c0.83,0.71,1.7,1.36,2.92,1.77
			c-0.44-0.54-0.83-1.09-1.29-1.6c-14.7-16.13-22.92-34.99-24.23-56.84c-1-16.86,3.1-32.54,10.97-47.29
			c10.37-19.48,25.24-34.54,44.8-44.9c1.54-0.81,2.57-1.7,2.97-3.55c2.83-13,5.8-25.97,8.81-39.3c-24.13-9.3-38.65-26.56-42.62-52.3
			c-0.16-0.03-0.32-0.09-0.35-0.04c-0.48,0.7-0.94,1.41-1.55,2.34c-0.1-0.45-0.25-0.7-0.22-0.93c3.95-31.94,15.01-61.19,33.47-87.59
			c5.56-7.96,11.69-15.45,18.37-22.5c0.67-0.71,1.29-1.45,2.28-2.57c-10.92-3.58-21.53-7.05-32.41-10.62
			C587.78,125.21,579.55,143.68,576.11,164.42z"/>
		<path class="st0" d="M101.19,589.64c-0.83,3.83-1.74,7.63-2.47,11.48c-3.47,18.47-4.9,37.09-4,55.87
			c1.97,41.03,13.51,79.19,34.57,114.46c9.28,15.55,22.24,27.46,37.3,37.23c14.19,9.2,29.46,16.25,45.07,22.63
			c16.9,6.91,33.93,13.52,50.78,20.57c15.67,6.54,30.76,14.22,44.74,23.94c11.3,7.86,20.88,17.55,29.99,27.75
			c31.16,34.88,54.07,74.51,68.55,119c1.96,6.05,3.68,12.17,6.01,18.21c-0.3-3.73-0.52-7.47-0.91-11.2
			c-3.64-34.38-11.98-67.57-25.76-99.29c-28.42-65.38-72.1-117.89-132.36-156.4c-13.8-8.82-28.74-14.64-44.3-19.31
			c-8.41-2.52-16.7-5.54-24.89-8.73c-10.21-3.97-18.63-10.79-26.62-18.09c-28.29-25.79-45.99-57.52-52.95-95.17
			c-2.45-13.27-2.92-26.68-2.13-40.14c0.04-0.87,0-1.74,0-2.61C101.58,589.77,101.39,589.72,101.19,589.64z"/>
		<path class="st0" d="M859.35,112.05c-41.59-2.64-80.65,5.51-117.7,24.6c0.15,0.9,0.19,1.76,0.42,2.57
			c2.07,7.41,4.15,14.83,6.27,22.22c0.3,1.04,0.71,2.1,1.26,3.02c4.47,7.33,8.99,14.62,13.51,21.92c0.26,0.42,0.64,0.78,1.33,1.61
			c1.02-19.12,9.11-33.64,24.94-43.72c9.52-6.05,24.59-8.86,31.25-7.04c-6.91,39.1-21.22,75.32-42.36,109.09
			c12.22-3.96,42.26-35.14,55.97-57.62C850.11,162.68,858.38,131.7,859.35,112.05z"/>
		<path class="st0" d="M706.85,448.46c-0.41-0.32-0.91-0.58-1.19-0.99c-4.22-6.5-10.17-10.91-17.13-14.01
			c-11.58-5.15-23.55-7.56-36.31-5.89c-5.53,0.73-11.2,0.81-16.77,0.49c-8.47-0.49-15.49-4.57-21.57-10.33
			c-0.94-0.9-1.7-1.99-2.61-3.08c-7.36,11.75-3.93,36.69,18.66,45.84c0.19,2.34,0.28,4.74,0.59,7.11
			c1.06,7.73,5.25,13.45,11.85,17.35c9.28,5.5,19.37,7.08,29.9,4.99c7.22-1.44,12.74-5.31,15.39-12.52c0.1-0.29,0.38-0.51,0.74-1
			c1.97,2.84,3.06,5.9,3.77,9.04c0.58,2.55,1.7,4.25,4.15,5.41c2.36,1.12,4.48,2.79,6.67,4.24c2.8,1.86,5.08,4.19,6.5,7.3
			c0.09,0.2,0.22,0.38,0.33,0.57c3.29,5.66,8.49,5.82,12.24,0.64c-2.19-4.47-4.35-8.78-6.4-13.14c-1.18-2.54-1.42-5.22-1.2-8.05
			c0.48-6.01-1.1-11.79-2.21-17.61c-1-5.21-2.67-10.21-5.16-14.91c-0.25-0.45-0.26-1.03-0.38-1.54
			C706.73,448.34,706.85,448.46,706.85,448.46z M673.41,467.33c0.71,1.28,1.09,2.21,1.68,2.97c1.67,2.16,1.22,4.22,0.1,6.44
			c-3.95,7.91-12.94,11.78-21.46,9.14c-8.05-2.5-13.43-10.85-12.36-19.21c0.09-0.62,0.45-1.2,0.83-2.13
			c2.45,8.4,7.21,12.95,14.01,13.58C664.39,478.88,669.86,475.04,673.41,467.33z"/>
	</g>
</g>
</svg>
